<?xml version="1.0" encoding="UTF-8"?><svg id="Ebene_2" xmlns="http://www.w3.org/2000/svg" viewBox="0 0 486.39 389.06"><defs><style>.cls-1{clip-path:url(#clippath);}.cls-2{fill:none;}.cls-2,.cls-3{stroke-width:0px;}.cls-3{fill:#1d1d1b;}</style><clipPath id="clippath"><rect class="cls-2" width="486.39" height="389.06"/></clipPath></defs><g id="Ebene_1-2"><g class="cls-1"><path class="cls-3" d="m419.56,203.22l-67.41,182.52h12.25l29.36-79.65c4.6-12.59,12.54-23.14,23.83-31.65,11.29-8.51,23.22-12.76,35.82-12.76,9.19,0,15.27,2.68,18.24,8.04,2.97,5.36,2.53,13.15-1.31,23.36l-34.21,92.67h12.25l34.26-92.92c4.89-13.27,5-23.53.32-30.76-4.68-7.23-13.06-10.85-25.14-10.85-18.55,0-36.15,8.6-52.79,25.78h-.51l27.3-73.78h-12.25Zm-86.61,172.7c11.07-8.76,19.76-20.38,26.06-34.85h-12c-4.85,11.06-11.61,20-20.3,26.8-8.69,6.81-18.24,10.3-28.65,10.47-13.11,0-22.09-4.04-26.96-12.13-4.87-8.08-6.09-19.02-3.66-32.8,1.53-8.68,4.08-17.14,7.67-25.4,3.58-8.25,8.04-15.91,13.37-22.97,5.33-7.06,11.91-12.76,19.74-17.1,7.82-4.34,16.25-6.51,25.27-6.51,10.38,0,17.73,2.98,22.04,8.93,4.31,5.96,6.15,13.11,5.54,21.44h11.74c.86-12.59-1.98-22.55-8.52-29.87-6.54-7.32-16.11-10.98-28.7-10.98-14.3,0-27.35,4.26-39.14,12.76-11.8,8.51-21.07,18.85-27.8,31.02-6.74,12.17-11.33,25.14-13.76,38.93-3.18,18.04-1.01,31.78,6.51,41.23,7.53,9.45,19.03,14.17,34.52,14.17,13.61,0,25.96-4.38,37.04-13.15m-92.69-100.58c3.81,9.28,3.33,21.15-1.43,35.61h-83.73c5.72-14.12,13.76-25.91,24.1-35.36,10.34-9.45,22.24-14.17,35.69-14.17s21.56,4.64,25.37,13.91m8.13-11.36c-6.3-8.68-16.68-13.02-31.14-13.02-10.9,0-21.17,2.55-30.83,7.66-9.67,5.11-17.87,11.79-24.6,20.04-6.73,8.26-12.29,17.1-16.68,26.55-4.39,9.45-7.42,18.93-9.1,28.46-3.09,17.53-.99,31.14,6.33,40.84,7.31,9.7,18.79,14.55,34.45,14.55,13.27,0,25.36-3.66,36.27-10.98,10.9-7.32,19.7-17.87,26.39-31.65h-12.25c-5.12,9.7-11.8,17.45-20.05,23.23-8.26,5.79-17.48,8.68-27.7,8.68-13.27,0-22.34-4.08-27.2-12.25-4.86-8.17-6.08-19.06-3.68-32.68.72-4.08,1.7-8.17,2.93-12.25h96.75c9.01-26.04,9.05-45.1.13-57.18m-121.76,121.77l4.07-11.49H19.89l.14-.77,165.76-158.27,4.41-12h-115.9l-4.02,11.23h99.81l-.14.77L4.55,372.98l-4.55,12.76h126.62Z"/><path class="cls-3" d="m385.64,107.73c1.36-14.81,5.91-26.72,13.66-35.74,7.74-9.02,18.42-13.53,32.04-13.53s23.78,4.64,30.51,13.91c6.72,9.28,10.25,21.06,10.59,35.36h-86.79Zm80.41-47.23c-9.02-8.51-20.59-12.76-34.72-12.76-17.87,0-32.12,6.38-42.76,19.15-10.64,12.76-15.95,29.36-15.95,49.78s5.23,37.48,15.7,50.16c10.47,12.68,25.14,19.02,44.04,19.02,14.12,0,25.61-3.87,34.46-11.62,8.85-7.74,14.72-18.08,17.61-31.02h-12c-6.3,21.1-19.66,31.65-40.08,31.65-15.49,0-27.15-5.27-34.97-15.83-7.83-10.55-11.83-24.25-12-41.1h99.81c.34-26.21-6.04-45.35-19.15-57.44m-187.15-9.96l-48.04,131.98h12.51l31.03-85.26c3.96-10.89,11.67-20.04,23.14-27.44,11.46-7.4,23.14-11.1,35.06-11.1,20.08,0,26.38,10.3,18.88,30.89l-33.82,92.92h12.51l34.29-94.2c4.65-12.76,4.46-22.68-.54-29.74-5-7.06-13.37-10.59-25.12-10.59-20.42,0-38.75,8.26-54.96,24.76h-.51l8.08-22.21h-12.51Zm-147.39,57.18c1.36-14.81,5.91-26.72,13.66-35.74,7.74-9.02,18.42-13.53,32.04-13.53s23.78,4.64,30.51,13.91c6.72,9.28,10.25,21.06,10.59,35.36h-86.79Zm80.41-47.23c-9.02-8.51-20.6-12.76-34.72-12.76-17.87,0-32.13,6.38-42.76,19.15-10.64,12.76-15.95,29.36-15.95,49.78s5.23,37.48,15.7,50.16c10.47,12.68,25.14,19.02,44.04,19.02,14.12,0,25.61-3.87,34.46-11.62,8.85-7.74,14.72-18.08,17.61-31.02h-12c-6.3,21.1-19.66,31.65-40.08,31.65-15.49,0-27.15-5.27-34.97-15.83-7.83-10.55-11.83-24.25-12-41.1h99.81c.34-26.21-6.04-45.35-19.15-57.44m-89.42,122.02v-12.25H24.23V0h-13.27v182.52h111.56Z"/></g></g></svg>